<?xml version="1.0" encoding="UTF-8"?>
<svg xmlns="http://www.w3.org/2000/svg" width="512" height="512" viewBox="0 0 512 512">
  <!-- Navy background with rounded corners -->
  <rect width="512" height="512" rx="96" fill="#0E2052"/>
  <!-- Gold accent circle (top-right) -->
  <circle cx="420" cy="92" r="80" fill="rgba(232,184,75,0.12)"/>
  <!-- Gold accent line (bottom) -->
  <rect x="0" y="485" width="300" height="3" fill="#E8B84B" opacity="0.6" rx="2"/>

  <!-- BikeParking logo, scaled to fit with padding, recoloured white -->
  <g transform="translate(36, 28) scale(0.462)">
    <!-- P letter -->
    <path fill="white" d="M63.19,730.15V123.82h257.05c27.89,0,53.65,5.7,77.29,17.08,23.62,11.4,43.98,26.77,61.06,46.12,17.08,19.36,30.32,40.99,39.71,64.9,9.39,23.91,14.09,48.4,14.09,73.44,0,33.6-7.69,65.9-23.06,96.93-15.37,31.04-37.15,56.23-65.33,75.58-28.18,19.36-61.06,29.04-98.64,29.04h-144.32v203.25H63.19ZM181.04,423.57h136.64c14.8,0,27.89-3.98,39.28-11.96,11.38-7.97,20.35-19.5,26.9-34.59,6.54-15.08,9.82-32.3,9.82-51.67,0-21.06-3.84-38.86-11.53-53.37-7.69-14.52-17.65-25.62-29.89-33.31-12.25-7.69-25.49-11.53-39.71-11.53h-131.51v196.42Z"/>
    <!-- Bike icon -->
    <circle cx="405.26" cy="800.75" r="119.19" style="fill:none; stroke:white; stroke-miterlimit:10; stroke-width:31px;"/>
    <circle cx="818.54" cy="800.75" r="119.19" style="fill:none; stroke:white; stroke-miterlimit:10; stroke-width:31px;"/>
    <path d="M405.26,800.75c17.83-54.63,29.44-99.47,38.88-129.76,27.97-89.71,35.19-104.05,43.21-115.7,9.88-14.37,27.28-16.14,44.01-14.37" style="fill:none; stroke:white; stroke-linecap:round; stroke-miterlimit:10; stroke-width:31px;"/>
    <polygon points="454.25 638.88 643.09 800.75 818.54 798.23 688.82 633.71 454.25 638.88" style="fill:none; stroke:white; stroke-linecap:round; stroke-linejoin:round; stroke-width:31px;"/>
    <path d="M701.41,596.37c-17.82,64.73-35.65,129.47-53.47,194.2" style="fill:none; stroke:white; stroke-linecap:round; stroke-linejoin:round; stroke-width:31px;"/>
    <line x1="659.85" y1="589.17" x2="733.53" y2="589.17" style="fill:none; stroke:white; stroke-linecap:round; stroke-miterlimit:10; stroke-width:31px;"/>
  </g>

  <!-- Gold bar at bottom -->
  <rect x="0" y="480" width="512" height="32" fill="#E8B84B" rx="0"/>
  <rect x="0" y="480" width="512" height="32" fill="#E8B84B"/>
  <!-- Round bottom corners of the gold bar -->
  <rect x="0" y="464" width="96" height="48" fill="#0E2052"/>
  <rect x="416" y="464" width="96" height="48" fill="#0E2052"/>
  <rect x="0" y="480" width="512" height="18" fill="#E8B84B"/>
  <circle cx="96" cy="480" r="16" fill="#E8B84B"/>
  <circle cx="416" cy="480" r="16" fill="#E8B84B"/>
</svg>
